# xmcd
#
# Track frame offsets:
#	150
#	13003
#	27933
#	44769
#	58686
#	74409
#	90945
#	109092
#	125409
#	139157
#
# Disc length: 2038 seconds
#
# Revision: 0
# Processed by: cddbd v1.5.1PL0 Copyright (c) Steve Scherf et al.
# Submitted via: dBpowerAMP V4.0
#
DISCID=8907f40a
DTITLE=Marie Osmond - All In Love 
DYEAR=1988
DGENRE=Country
TTITLE0=Marie Osmond - I'm In Love And He's In Dallas
TTITLE1=Marie Osmond - Raining Tears
TTITLE2=Marie Osmond - My Home Towm Boy
TTITLE3=Marie Osmond - Baby's Blue Eyes
TTITLE4=Marie Osmond - Lonely As The Night Is Long
TTITLE5=Marie Osmond - 99% Of The Time
TTITLE6=Marie Osmond - Somebody Else's Moon
TTITLE7=Marie Osmond and Paul Davis - Sweet Life 
TTITLE8=Marie Osmond - All In Love
TTITLE9=Marie Osmond - Without A Trace
EXTD=MARIE OSMOND - ALL IN LOVE
EXTT0=
EXTT1=
EXTT2=
EXTT3=
EXTT4=
EXTT5=
EXTT6=
EXTT7=
EXTT8=
EXTT9=
PLAYORDER=
